<svg width="16" height="16" viewBox="0 0 16 16" fill="none" xmlns="http://www.w3.org/2000/svg">
<path d="M8 0C3.58214 0 0 3.58214 0 8C0 12.4179 3.58214 16 8 16C12.4179 16 16 12.4179 16 8C16 3.58214 12.4179 0 8 0ZM8 14.6429C4.33214 14.6429 1.35714 11.6679 1.35714 8C1.35714 4.33214 4.33214 1.35714 8 1.35714C11.6679 1.35714 14.6429 4.33214 14.6429 8C14.6429 11.6679 11.6679 14.6429 8 14.6429Z" fill="#666666"/>
<path d="M6.14 5.16129H9.86C9.893 5.16129 9.92 5.10323 9.92 5.03226V4.12903C9.92 4.05806 9.893 4 9.86 4H6.14C6.107 4 6.08 4.05806 6.08 4.12903V5.03226C6.08 5.10323 6.107 5.16129 6.14 5.16129ZM9.86 12C9.893 12 9.92 11.9419 9.92 11.871V10.9677C9.92 10.8968 9.893 10.8387 9.86 10.8387H6.14C6.107 10.8387 6.08 10.8968 6.08 10.9677V11.871C6.08 11.9419 6.107 12 6.14 12H9.86ZM10.94 7.41935H5.06C5.027 7.41935 5 7.47742 5 7.54839V8.45161C5 8.52258 5.027 8.58065 5.06 8.58065H10.94C10.973 8.58065 11 8.52258 11 8.45161V7.54839C11 7.47742 10.973 7.41935 10.94 7.41935Z" fill="#666666"/>
</svg>
